<?xml version="1.0" encoding="UTF-8"?>
<!DOCTYPE svg PUBLIC "-//W3C//DTD SVG 1.1//EN" "http://www.w3.org/Graphics/SVG/1.1/DTD/svg11.dtd">
<!-- Creator: CorelDRAW 2021 (64-Bit) -->
<svg xmlns="http://www.w3.org/2000/svg" xml:space="preserve" width="20.6586mm" height="28.1092mm" version="1.1" style="shape-rendering:geometricPrecision; text-rendering:geometricPrecision; image-rendering:optimizeQuality; fill-rule:evenodd; clip-rule:evenodd"
viewBox="0 0 558.71 760.22"
 xmlns:xlink="http://www.w3.org/1999/xlink"
 xmlns:xodm="http://www.corel.com/coreldraw/odm/2003">
 <defs>
  <style type="text/css">
   <![CDATA[
    .fil0 {fill:gray}
   ]]>
  </style>
 </defs>
 <g id="Layer_x0020_1">
  <metadata id="CorelCorpID_0Corel-Layer"/>
  <g id="_2267953067568">
   <path class="fil0" d="M195.85 669.4c9.58,4.87 60.43,67.45 68.69,73.71 -24.18,5.53 -68.08,-0.19 -92.63,-3.8l23.95 -69.91zm89.12 73.75c4.59,-5.14 10.97,-13.91 16.49,-20.38l53.45 -62.83 26.06 77.09c-31.01,4 -64.17,11.24 -96.01,6.12zm-107.65 -81.65l6.41 -2.9c-0.24,13.08 0.52,1.48 -2.59,6.55l-24.6 69.77c-32.75,-3.75 -74.89,-35.32 -87.76,-49.85 6.89,-5.35 45.14,-11.09 54,-12.86 17.47,-3.5 36.91,-8.12 54.54,-10.7zm191.2 -12.65l107 39.37c-9.16,18.86 -63.19,41.28 -80.11,44.44l-26.89 -83.82zm-284.64 15.5l-6.47 2.74c-0.22,-13.05 -0.57,-1.45 2.45,-6.53 6.97,-17.84 33.57,-95.89 40.96,-105.32l57.62 21.55 4.65 67.96 -99.21 19.6zm190.89 65.57c-4.85,-3.71 -10.97,-11.39 -17.79,-18.24l-52.43 -58.39c15.73,-9.82 50.92,-25.78 69.17,-33.9 16.61,-7.4 56.49,15.53 74.79,20.69 -2.51,6.94 -66.63,84.6 -73.72,89.84zm96.13 -141.05c0.07,-4.37 -1.5,-7.02 3.03,-6.53l3.1 -3.46 60.81 -21.65 38.48 111.06 3.33 5.55 -5.99 -2.89 -105.84 -39.29 3.08 -42.79zm-65.88 18.6c13.05,-5.86 36.18,-15.36 51.09,-18.85l-3.71 37.11 -47.37 -18.26zm-102.58 29.45l-5.26 2.2 -0.64 -11.15 -2.04 -45.16 66.5 26.02c-18.12,7.81 -39.87,18.96 -58.56,28.1zm-142.81 34.37c-2.83,-2.32 -0.72,0.17 -4.84,-4.72 -17.38,-20.59 -33.7,-77.2 -36.12,-105.22l84.42 -7.69 -43.45 117.63zm392.18 -119.01l86.12 13.61c-5.07,39.83 -22.88,78.69 -43.33,103.04l-1.9 -2.83c-0.24,-0.43 -1.36,-2.43 -1.65,-3.05 -0.83,-1.77 -1.91,-4.91 -2.54,-6.67l-16.15 -45.67c-6.67,-19.46 -14.86,-39.36 -20.54,-58.44zm-65.54 -119.82l1.61 -10.91 4.63 5.68c1.79,28.38 35.82,86.68 37.93,116.21l-56.15 20.24c2.41,-30.56 14.87,-106.88 11.98,-131.22zm-226.26 -0.15l4.73 -7.37 0.29 7.87 11.44 126.91 -51.89 -18.66 35.44 -108.75zm-144.71 -33.02l80.76 139.67 -80.3 5.94 -0.45 -145.61zm528 141.3c-0.17,2.43 0.91,14.62 -8.09,9.06l-78.89 -13.78c-2.13,-3.46 0.83,-5.21 7.31,-14.94l79.34 -111.46 0.33 131.13zm-101.16 -17.08c-8.01,-13.76 -19.53,-53.11 -26.27,-71.55 -5.98,-16.34 -25.15,-59.87 -21.67,-75.8 5.85,-26.79 39.87,-107.54 50.34,-145.02l48.39 75.01c16.27,26.37 31.93,50.28 47.45,76.23 -3.97,9.56 -6.8,11.18 -12.54,19.45l-85.71 121.67zm-249.48 42.16c-3.18,-41.09 -8.05,-82.49 -12.07,-123.58 -7.43,-75.9 -8.55,-46.77 -1.42,-123.75 3.81,-41.11 6.83,-82.71 11.2,-123.87 1.38,-13.05 4.32,-13.18 16.08,-17.75 82.48,-32.08 54.15,-34.11 118.16,-2.1 35.88,17.94 33.41,12.02 35.21,31.22 3.72,39.76 17.87,147.81 16.39,181.2 -1.93,43.46 -13.24,135.61 -18,181.96 -7.68,5.84 -29.52,12.56 -40.46,16.68 -50.97,19.18 -37.66,14.24 -125.09,-20zm-128.82 -263.71c7.41,-10.2 38.71,-56.12 46.97,-62.11 6.04,23.66 15.44,50.77 23.16,74.96 29.25,91.58 30.73,57.55 1.29,145.63 -5.75,17.21 -16.65,59.86 -25.37,71.23 -4.84,-12.54 -15.91,-29.04 -23.02,-41.53 -7.62,-13.39 -15.29,-27.14 -23.26,-40.88 -9.03,-15.59 -42.75,-70.2 -45.74,-82.88l45.95 -64.41zm-45.76 -77.71l1.76 -7.51 22.95 1.38 60.34 1.88 -65.59 92.28c-6.77,8.81 -13.92,20.31 -22.03,28.68l2.57 -116.7zm524.26 130.77c-4.78,-4.78 -84.75,-132.19 -87.11,-139.27l82.36 0.03c7.4,35.23 7.07,101.68 4.75,139.24zm-162.76 -155.44l53.95 17.46 -44.02 123.45 -13.81 -136.55 -2.53 -7.3c7.95,0.81 3.23,-0.52 6.41,2.93zm78.87 -4.19l25.88 -77.41c2.88,-8.17 5.13,-18.51 11.05,-24.94 6.04,14.54 15.75,29.27 23.03,48.01 5.44,14.01 13.77,38.9 14.65,54.23l2.12 6.19 -79.63 0.03c0.84,-8.07 -0.08,-3.54 2.89,-6.1zm-295.55 145.47l-1.21 9.18c-5.24,-7.21 -1.44,-1.38 -3.37,-7.66l-36.73 -120.26 49.68 -27.44c4.58,-3.8 -6.01,-1.94 6.33,-3.35l-3.51 10.8 -11.19 138.73zm-139.92 -140.02c-0.54,-21.8 19.71,-90.01 34.27,-109.32 0.32,-0.43 0.81,-1.01 1.11,-1.39l40.33 114.36 -75.71 -3.64zm334.57 -83.78l-0.82 56.57 -61.11 -32.42 61.93 -24.15zm-161.07 19.57l2.86 -10.63c0.2,-0.33 0.68,-0.8 0.8,-0.84 0.09,-0.03 0.75,-0.25 0.84,-0.27 2.33,-0.36 1.85,-0.92 1.85,1.66l47.04 16.34 -55.84 21.76 2.44 -28.02zm60.64 -94.72c5.6,-7.09 12.47,-14.09 17.64,-20.82 10.29,8.42 25.3,28.95 36.03,41.32 12.48,14.38 24.18,27.42 34.97,42.7 -70.98,21.23 -45.28,37.55 -107.36,16.04l-27.51 -9.16c-6.87,-3.07 -2.73,-0.13 -7.1,-4.78l53.32 -65.3zm221.54 44.87c-4.07,16.71 -34.43,105.8 -41.32,115.32 -11.3,-2.79 -24.17,-7.82 -34.79,-11.61 -38.1,-13.57 -29.65,2.38 -29.76,-78.36l105.87 -25.35zm-400.03 -0.31l105.28 32.27c-0.94,12.06 -2.77,23.91 -4.15,35.56 -2.07,17.6 -0.31,17.86 -13.68,25.58 -10.24,5.9 -40.52,24.05 -50.34,25.94l-37.11 -119.36zm324.69 -63.05c27.27,6.58 64.84,31.7 73.11,47.74l-104.5 24.81 31.4 -72.55zm-222.74 73.13l3.56 7.83 -6.47 -3.35 -103.69 -32.69c14.91,-19.15 47.39,-45.75 85.77,-49.49l20.83 77.71zm-5.33 -80.99l82.14 -0.27c-7.76,13.88 -20.03,26.84 -30.52,39.88 -5.98,7.44 -24.08,32.23 -30.89,36.26l-20.74 -75.87zm182.12 76.33c-4.02,-2.87 -61.02,-68.32 -64.51,-76.48 43.22,-0.55 53,-2.57 95.51,3.42l-31 73.06zm-357.4 185.24l0 267.22c4.96,11.65 4.9,31.57 7.84,45.61 17.9,85.52 69.43,146.27 156.89,163.5 11.4,2.25 39.45,4.29 47.14,6.78l123.39 0c7.06,-3.12 16.81,-3.22 24.55,-4.23 22.12,-2.89 44.85,-8.29 65.53,-16.91 53.58,-22.31 88.99,-57.45 110.28,-109.62 18.7,-45.83 16.11,-73.99 23.09,-89.4l0 -296.74c-10.7,-23.16 -5.75,-143.02 -105.44,-213.46 -32.27,-22.8 -60.23,-21.68 -76.12,-29.87l-207.16 0c-21.29,9.64 -44.78,4.49 -80.64,32.09 -96.31,74.1 -83.41,227.12 -89.35,245.02z"/>
   <path class="fil0" d="M533.08 195.27c-0.9,4.22 0.26,1.73 -1.84,4.04l-70.99 -0.01c-2.91,-2.47 -4.2,3.66 -1.79,-3.91 -2.97,2.56 -2.05,-1.97 -2.89,6.1l79.63 -0.03 -2.12 -6.19z"/>
   <path class="fil0" d="M386.27 432.46c3.39,-4.02 2.79,-2.64 6.24,-5.23l-4.63 -5.68 -1.61 10.91z"/>
   <path class="fil0" d="M202.45 636.92c-2.82,-2.83 -1.28,-0.98 -3.82,-4.75 -0.09,-0.14 -1.79,-3.7 -2.08,-4.2l0.64 11.15 5.26 -2.2z"/>
   <path class="fil0" d="M158.33 342.38c1.93,6.28 -1.87,0.45 3.37,7.66l1.21 -9.18 -4.58 1.53z"/>
   <path class="fil0" d="M174.1 202.13l3.51 -10.8c-12.34,1.41 -1.75,-0.45 -6.33,3.35 5.2,-0.46 2.9,0.26 2.81,7.45z"/>
   <path class="fil0" d="M535.21 549.65c9,5.56 7.92,-6.63 8.09,-9.06 -3.47,5.16 -2.33,0.87 -2.38,9.21l-5.71 -0.15z"/>
   <polygon class="fil0" points="160.01,432.31 165.03,432.81 164.74,424.94 "/>
   <path class="fil0" d="M181.15 665.14c3.11,-5.07 2.35,6.53 2.59,-6.55l-6.41 2.9c5.02,0.21 3.9,-1.16 3.82,3.65z"/>
   <path class="fil0" d="M83.89 664.34c-5.28,-0.19 -4.13,1.25 -4.02,-3.79 -3.02,5.08 -2.67,-6.52 -2.45,6.53l6.47 -2.74z"/>
   <path class="fil0" d="M375.72 203.95l0.3 -5.67 3.58 1.3c-3.18,-3.45 1.54,-2.13 -6.41,-2.93l2.53 7.3z"/>
   <path class="fil0" d="M177.7 101.01l6.47 3.35 -3.56 -7.83c1.4,7.6 1.56,2.31 -2.91,4.47z"/>
   <path class="fil0" d="M370.91 588.86l3.03 -6.53 3.1 -3.46 -3.1 3.46c-4.53,-0.49 -2.96,2.16 -3.03,6.53z"/>
   <path class="fil0" d="M473.66 670.94l5.99 2.89 -3.33 -5.55c0,3.58 0.9,2.71 -2.66,2.66z"/>
   <path class="fil0" d="M196.5 136.62l2.86 -10.63 3.49 0.55c0,-2.58 0.48,-2.02 -1.85,-1.66 -0.09,0.02 -0.75,0.24 -0.84,0.27 -0.12,0.04 -0.6,0.51 -0.8,0.84l-2.86 10.63z"/>
   <polygon class="fil0" points="18.1,224.25 19.85,216.74 42.8,218.11 19.85,216.74 "/>
  </g>
 </g>
</svg>
