<?xml version="1.0" encoding="UTF-8"?>
<!DOCTYPE svg PUBLIC "-//W3C//DTD SVG 1.1//EN" "http://www.w3.org/Graphics/SVG/1.1/DTD/svg11.dtd">
<!-- Creator: CorelDRAW 2021 (64-Bit) -->
<svg xmlns="http://www.w3.org/2000/svg" xml:space="preserve" width="7.7724mm" height="7.7144mm" version="1.1" style="shape-rendering:geometricPrecision; text-rendering:geometricPrecision; image-rendering:optimizeQuality; fill-rule:evenodd; clip-rule:evenodd"
viewBox="0 0 25.44 25.25"
 xmlns:xlink="http://www.w3.org/1999/xlink"
 xmlns:xodm="http://www.corel.com/coreldraw/odm/2003">
 <defs>
  <style type="text/css">
   <![CDATA[
    .fil0 {fill:#A2A2A2}
   ]]>
  </style>
 </defs>
 <g id="Layer_x0020_1">
  <metadata id="CorelCorpID_0Corel-Layer"/>
  <path class="fil0" d="M11.14 19.37c0.38,1.63 1.05,3.51 1.41,5.07 -0.61,-0.41 -1.18,-0.86 -1.76,-1.32l-1.25 -1c-0.23,-0.19 -0.19,-0.26 -0.49,-0.34 0.07,-0.27 0.02,-0.1 0.18,-0.32l0.8 -0.94c0.17,-0.22 0.35,-0.34 0.52,-0.56 0.21,-0.27 0.28,-0.4 0.57,-0.59zm7.52 -19.37l0.86 0c0.87,0.05 1.74,0.28 2.57,0.69 0.77,0.38 1.22,0.79 1.75,1.41 1.06,1.25 1.52,3.01 1.6,4.81l0 1.26c-0.05,1.09 -0.21,2.15 -0.45,3.09 -0.3,1.21 -0.64,1.98 -1.24,3 -0.08,0.13 -0.09,0.19 -0.17,0.32l-0.73 1.1c-1.76,2.38 -3.55,4.3 -5.79,6.27l-2.03 1.71c-2.39,1.93 -1.74,1.92 -3.21,0.82 -0.39,-0.29 -0.71,-0.54 -1.09,-0.82l-3.11 -2.63c-2.73,-2.53 -5.03,-5.2 -6.53,-8.69 -0.2,-0.47 -0.36,-0.87 -0.57,-1.35l-0.2 -0.79c-0.31,-1.33 -0.33,-1.71 -0.33,-2.86l0 -0.06 0 -0.06 0 -0.06 0 -0.07 0 -0.07 0 -0.07 0 -0.07c0,-2.1 0.91,-3.86 1.98,-4.92 0.13,-0.13 0.12,-0.11 0.22,-0.28l0.39 -0.34c0.09,-0.03 0.01,0.01 0.14,-0.05 0.33,-0.16 0.59,-0.41 1.2,-0.7 2.11,-0.98 4.59,-0.73 6.48,0.45 0.73,0.45 2.11,1.68 2.31,2.43l0.17 0c0.09,-0.35 0.79,-1.18 1.02,-1.4 1.31,-1.22 3,-1.99 4.76,-2.1zm-5.27 24.36c0.04,-0.53 1.14,-4.68 1.25,-4.91l2.18 2.14c-0.32,0.18 -0.93,0.75 -1.25,1.04l-1.28 1.05c-0.25,0.2 -0.61,0.6 -0.9,0.68zm-1.91 -5.49c0.51,-0.27 0.94,-0.77 1.41,-1.08 0.35,0.23 1.1,0.91 1.33,1.25l-1.25 4.91c-0.17,-0.25 -0.67,-2.21 -0.75,-2.49 -0.11,-0.44 -0.23,-0.82 -0.37,-1.29 -0.1,-0.35 -0.26,-1.02 -0.38,-1.28zm5.65 2.33c-0.35,-0.23 -1.25,-1.22 -1.69,-1.64 -0.88,-0.85 0.01,-0.39 2.01,-0.61 0.6,-0.07 1.51,-0.15 2.17,-0.15 -0.31,0.46 -2.01,2.09 -2.49,2.41zm-11.14 -2.49l4.74 0.33c-0.15,0.23 -0.32,0.35 -0.5,0.58 -0.32,0.42 -1.07,1.11 -1.5,1.75 -0.44,-0.23 -2.47,-2.15 -2.74,-2.66zm8.81 -0.08l1 -4.32c0.38,-0.03 0.54,-0.16 0.88,-0.28l2.69 -0.88c0,0.46 0.07,0.83 0.13,1.28l0.45 3.87 -5.15 0.33zm-8.4 -5.4c0.36,0.03 2.53,0.83 3.18,1.07 0.25,0.09 0.26,0.05 0.37,0.3l0.47 1.94c0.12,0.55 0.43,1.46 0.48,2.02 -1.7,0 -2.89,-0.21 -4.58,-0.25 -0.39,-0.01 -0.35,-0.06 -0.66,-0.09 0.08,-0.16 0.75,-4.57 0.75,-4.99zm7.98 5.15c-0.24,-0.06 -1.06,-0.88 -1.08,-0.91 0.24,-0.35 0.56,-0.73 0.85,-1.06 0.23,-0.26 0.66,-0.86 0.9,-1.02 -0.01,0.57 -0.61,2.37 -0.67,2.99zm-3.74 -3.08c0.11,0.08 0.35,0.38 0.47,0.52 0.17,0.2 0.3,0.36 0.45,0.54l0.9 1.09c-0.14,0.2 -0.32,0.31 -0.53,0.47 -0.19,0.15 -0.39,0.33 -0.56,0.44 -0.16,-0.33 -0.69,-2.59 -0.75,-3.08zm4.41 -0.08l0.02 0.02c-0,-0 -0.03,-0.02 -0.02,-0.02zm4.82 -2.08c0.21,0.1 3.19,0.82 3.49,0.83 -0.42,0.79 -0.82,1.37 -1.34,2.07 -0.26,0.34 -1.22,1.73 -1.65,1.84 0,-1.33 -0.5,-3.44 -0.5,-4.74zm-14.63 4.74c-0.48,-0.32 -2.59,-3.27 -2.74,-3.91 0.28,-0.02 3.25,-0.67 3.41,-0.75 0,1.15 -0.56,3.37 -0.67,4.66zm11.31 -4.31c0.07,-0.29 0.24,-0.37 0.41,-0.59 0.27,-0.35 1.13,-1.57 1.5,-1.66 0.12,0.51 0.63,0.97 0.67,1.41l-2.57 0.84zm-9.29 -2.24l0.14 -0.01c0.06,0.24 0.64,0.81 0.91,1.16 0.29,0.37 0.7,0.75 0.91,1.16l-1.98 -0.68c-0.23,-0.09 -0.39,-0.17 -0.68,-0.24l0.69 -1.4zm-6.1 -0.01c0.37,0.03 1.71,0.58 2.17,0.74 0.33,0.11 1.88,0.59 2.07,0.84 -0.45,0.01 -1.18,0.23 -1.6,0.31l-1.64 0.35 -1 -2.24zm22.45 2.24l-3.27 -0.8c-0.01,-0.01 -0.04,-0.02 -0.06,-0.03 0.37,-0.09 0.67,-0.24 1.03,-0.38 0.4,-0.16 0.68,-0.27 1.07,-0.43 0.38,-0.15 0.73,-0.29 1.07,-0.43 0.35,-0.14 0.75,-0.27 1.07,-0.43 -0.06,0.7 -0.64,1.97 -0.91,2.49zm-15.96 -7.48c0.93,-0.22 4.86,-1.58 5.24,-1.58 0.5,0 2.08,0.59 2.6,0.73l2.64 0.77c0,0.65 0.12,4.59 -0.11,4.96l-2.61 3.13c-0.01,0.01 -0.02,0.04 -0.03,0.05l-1.52 1.89c-0.2,0.26 -0.76,0.98 -0.96,1.12 -0.28,-0.19 -0.29,-0.26 -0.49,-0.51 -0.15,-0.19 -0.33,-0.4 -0.49,-0.59 -0.34,-0.39 -0.61,-0.74 -0.95,-1.13l-3.29 -3.94c-0.22,-0.27 -0.22,-0.39 -0.18,-0.9l0.16 -4zm-4.07 1.33c0.33,0.22 0.56,0.52 0.85,0.81l2.56 2.68 -0.83 1.66 -4.39 -1.59c-0.23,-0.09 -0.38,-0.17 -0.68,-0.24 0.6,-0.89 1.9,-2.43 2.49,-3.33zm16.05 5.07c-0.28,-0.54 -0.63,-1.05 -0.91,-1.58 0.26,-0.38 2.09,-2.19 2.52,-2.64 0.29,-0.3 0.45,-0.74 0.89,-0.85 0.11,0.42 2,2.53 2.33,3.16 -0.33,0.18 -0.82,0.35 -1.18,0.49l-2.38 0.95c-0.42,0.17 -0.85,0.38 -1.27,0.47zm2.83 -5.4c0.17,-0.25 1.97,-1.5 2.33,-1.75 0.22,0.96 0.17,1.9 0.17,2.91 0,0.73 -0.17,1.22 -0.17,1.83 -0.33,-0.22 -1.68,-2.1 -2.07,-2.59l-0.26 -0.41zm-18.37 0c0.46,-0.01 2.44,-0.68 3.08,-0.83 0,1.36 -0.08,2.56 -0.08,3.99 -0.37,-0.25 -1.23,-1.15 -1.53,-1.54l-1.11 -1.14c-0.07,-0.06 -0.16,-0.14 -0.21,-0.21 -0.2,-0.25 -0.05,-0.09 -0.14,-0.27zm14.55 3.16l0 -4.07 2.99 0.91 -2.99 3.16zm-17.79 0c-0.4,-1.72 -0.33,-1.95 -0.33,-3.66 0,-0.58 0.17,-0.79 0.17,-1.33 0.87,0.58 1.71,1.16 2.58,1.75 -0.07,0.26 -0.4,0.62 -0.57,0.84l-1.84 2.4zm0 -5.4c0.17,-0.74 1.05,-2.22 1.58,-2.58l0.83 4.07c-0.12,0.17 0.07,0.12 -0.6,-0.32 -0.42,-0.27 -1.56,-1.11 -1.81,-1.18zm7.14 0.6c0,-0.03 0.05,-0.07 0.05,-0.06l1.21 -1.87 2.75 0.71c-0.35,0.12 -0.6,0.23 -0.96,0.34l-2.47 0.77c-0.13,0.04 -0.16,0.04 -0.25,0.08l-0.18 0.07c-0.01,0.01 -0.04,0.02 -0.06,0.03l-0.1 -0.07zm14.48 0.98c0.01,-0.37 0.13,-0.67 0.21,-1.03 0.09,-0.41 0.15,-0.62 0.23,-1.01 0.16,-0.72 0.31,-1.35 0.47,-2.03 0.41,0.3 1.25,1.82 1.25,2.58 -0.32,0.09 -0.79,0.53 -1.1,0.73 -0.38,0.26 -0.69,0.51 -1.06,0.76zm-5.9 -2.83c0.08,0.29 1.02,1.49 1.25,1.83 -1.06,-0.25 -2.8,-0.9 -3.91,-1.16l2.66 -0.67zm-7.82 -2.74c0.76,0.18 1.56,0.7 2.11,1.14 0.39,0.32 0.52,0.41 0.84,0.82l0.52 0.98 -2.45 -0.62c-0.39,-0.09 -0.4,0.02 -0.52,-0.31l-0.49 -2zm13.14 5.82c-0.16,-0.08 -0.58,-0.18 -0.76,-0.24l-2.37 -0.71c-0.35,-0.13 -1.51,-1.89 -1.78,-2.29 0.36,-0.01 1.17,-0.24 1.51,-0.32l2.96 -0.7c0.34,-0.08 1.16,-0.31 1.51,-0.32l-1.08 4.57zm-19.04 -4.74c0.41,0.2 5.61,1.35 5.9,1.5l-1.2 1.88c-0.2,0.31 -0.19,0.38 -0.58,0.5 -0.7,0.23 -2.78,0.73 -3.22,0.94 0,-0.6 -0.8,-3.93 -0.91,-4.82zm14.05 1.08c0.15,-0.65 0.66,-1.91 0.67,-2.33 1.66,-0.39 4.34,-0.09 5.07,1l-4.27 0.96c-0.44,0.11 -1.14,0.21 -1.46,0.37zm-10.39 -2.49l1.34 0.08c0.42,0.07 0.36,0.17 0.46,0.62l0.45 1.71c-0.19,-0.09 -5.22,-1.32 -5.49,-1.33 0.38,-0.52 2.31,-1.08 3.24,-1.08zm6.65 3.41c0.61,-0.92 0.78,-1.18 1.6,-1.89 0.41,-0.35 1.68,-1.14 2.3,-1.19l-0.6 1.97c-0.12,0.36 -0.12,0.32 -0.5,0.41 -0.98,0.23 -1.86,0.47 -2.8,0.69z"/>
 </g>
</svg>
