<?xml version="1.0" encoding="UTF-8"?>
<!DOCTYPE svg PUBLIC "-//W3C//DTD SVG 1.1//EN" "http://www.w3.org/Graphics/SVG/1.1/DTD/svg11.dtd">
<!-- Creator: CorelDRAW 2021 (64-Bit) -->
<svg xmlns="http://www.w3.org/2000/svg" xml:space="preserve" width="8.4901mm" height="8.4327mm" version="1.1" style="shape-rendering:geometricPrecision; text-rendering:geometricPrecision; image-rendering:optimizeQuality; fill-rule:evenodd; clip-rule:evenodd"
viewBox="0 0 18.44 18.31"
 xmlns:xlink="http://www.w3.org/1999/xlink"
 xmlns:xodm="http://www.corel.com/coreldraw/odm/2003">
 <defs>
  <style type="text/css">
   <![CDATA[
    .str0 {stroke:#A3A3A3;stroke-width:0.29;stroke-linecap:round;stroke-linejoin:round;stroke-miterlimit:22.9256}
    .fil0 {fill:none}
   ]]>
  </style>
 </defs>
 <g id="Layer_x0020_1">
  <metadata id="CorelCorpID_0Corel-Layer"/>
  <g id="_2240761051168">
   <path class="fil0 str0" d="M0.15 9.14c-0.07,-3.41 0.62,-5.73 2.01,-7.07 1.66,-1.3 3.95,-1.89 7.04,-1.93 4,0.2 6.04,0.92 7.02,1.93 1.45,1.28 2.17,3.59 2.06,7.04 0.08,3.32 -0.5,5.8 -2.01,7.1 -1.2,1.25 -3.74,1.81 -7.07,1.95 -3.37,-0.12 -5.78,-0.73 -7.02,-1.93 -1.61,-1.47 -2.06,-4.06 -2.04,-7.1z"/>
   <path class="fil0 str0" d="M1.98 5.79l3.19 -0.65 4.05 -1.38 3.17 -1.34 0.86 2.71 1.56 3.97 1.64 3.4 -3.21 0.65 -4.07 1.42 -3.12 1.33 -0.91 -2.74 -1.49 -4.03 -1.68 -3.34z"/>
   <path class="fil0 str0" d="M1.99 12.51l1.66 -3.39 1.54 -3.98 0.88 -2.7 3.17 -2.27 3.13 2.27 3.88 -0.34 0.21 3.69 -1.64 3.32 -1.57 4.1 -0.84 2.69 -3.17 -1.33 -4.1 -1.38 -3.16 -0.68z"/>
   <path class="fil0 str0" d="M5.6 0.53l0.45 1.91 -3.87 -0.34 -0.21 3.68 -1.81 3.38 1.8 3.34 0.22 3.71 3.84 -0.33 3.21 2.27 3.16 -2.26 3.87 0.32 0.19 -3.72 1.82 -3.37 -1.82 -3.33 1.52 -0.43"/>
   <path class="fil0 str0" d="M12.85 0.56l-0.45 1.89"/>
   <path class="fil0 str0" d="M16.45 5.79l-3.2 -0.63 -4.05 -1.41 -3.15 -1.32"/>
   <path class="fil0 str0" d="M0.47 5.36l1.5 0.43"/>
   <path class="fil0 str0" d="M0.47 12.96l1.51 -0.44"/>
   <path class="fil0 str0" d="M5.62 17.78l0.43 -1.89"/>
   <path class="fil0 str0" d="M12.41 15.9l0.45 1.86"/>
   <path class="fil0 str0" d="M16.46 12.51l1.52 0.47"/>
  </g>
 </g>
</svg>
