<?xml version="1.0" encoding="UTF-8"?>
<!DOCTYPE svg PUBLIC "-//W3C//DTD SVG 1.1//EN" "http://www.w3.org/Graphics/SVG/1.1/DTD/svg11.dtd">
<!-- Creator: CorelDRAW 2021 (64-Bit) -->
<svg xmlns="http://www.w3.org/2000/svg" xml:space="preserve" width="7.1815mm" height="7.1537mm" version="1.1" style="shape-rendering:geometricPrecision; text-rendering:geometricPrecision; image-rendering:optimizeQuality; fill-rule:evenodd; clip-rule:evenodd"
viewBox="0 0 15.63 15.56"
 xmlns:xlink="http://www.w3.org/1999/xlink"
 xmlns:xodm="http://www.corel.com/coreldraw/odm/2003">
 <defs>
  <style type="text/css">
   <![CDATA[
    .str0 {stroke:#A3A3A3;stroke-width:0.29;stroke-linecap:round;stroke-linejoin:round;stroke-miterlimit:22.9256}
    .fil0 {fill:none}
   ]]>
  </style>
 </defs>
 <g id="Layer_x0020_1">
  <metadata id="CorelCorpID_0Corel-Layer"/>
  <g id="_2240425194832">
   <path class="fil0 str0" d="M3.58 0.14l8.4 0 3.51 3.4 0 8.54 -3.31 3.33 -8.57 0 -3.46 -3.41 0 -8.44 3.43 -3.42z"/>
   <path class="fil0 str0" d="M4.64 2.07l6.28 0 2.63 2.54 0 6.4 -2.48 2.49 -6.41 0 -2.59 -2.55 0 -6.32 2.57 -2.56z"/>
   <path class="fil0 str0" d="M5.33 3.31l4.91 0 2.05 1.99 0 5 -1.94 1.95 -5.01 0 -2.02 -1.99 0 -4.94 2.01 -2z"/>
   <path class="fil0 str0" d="M5.78 4.12l4.02 0 1.68 1.63 0 4.1 -1.59 1.6 -4.11 0 -1.66 -1.63 0 -4.05 1.65 -1.64z"/>
   <path class="fil0 str0" d="M3.58 0.14l2.21 3.98"/>
   <path class="fil0 str0" d="M0.14 3.57l3.99 2.19"/>
   <path class="fil0 str0" d="M11.97 0.14l-2.17 3.98"/>
   <path class="fil0 str0" d="M15.48 3.54l-3.99 2.21"/>
   <path class="fil0 str0" d="M15.48 12.09l-3.99 -2.24"/>
   <path class="fil0 str0" d="M12.17 15.42l-2.27 -3.98"/>
   <path class="fil0 str0" d="M3.6 15.42l2.19 -3.98"/>
   <path class="fil0 str0" d="M0.14 12.01l3.99 -2.2"/>
  </g>
 </g>
</svg>
