<?xml version="1.0" encoding="UTF-8"?>
<svg version="1.1" xmlns="http://www.w3.org/2000/svg" width="1202" height="1202">
<path d="M0 0 C396.66 0 793.32 0 1202 0 C1202 396.66 1202 793.32 1202 1202 C805.34 1202 408.68 1202 0 1202 C0 805.34 0 408.68 0 0 Z " fill="#FEFEFE" transform="translate(0,0)"/>
<path d="M0 0 C0.81181732 -0.00067474 1.62363464 -0.00134949 2.46005249 -0.00204468 C13.94450381 0.01305215 25.07424776 0.38940261 36.35205078 2.75390625 C39.03845484 3.30967626 41.73370486 3.79535098 44.43359375 4.28125 C86.66968371 12.15228747 123.52744995 31.55410718 156.75 58.25 C157.39291992 58.7661084 158.03583984 59.2822168 158.69824219 59.81396484 C172.88424103 71.3092539 184.81821496 84.66832273 195.75 99.25 C196.80960938 100.64992188 196.80960938 100.64992188 197.890625 102.078125 C202.79601413 108.68301902 207.32605882 115.5179966 211.66503906 122.50439453 C212.67062328 124.12228993 213.6901978 125.73146705 214.7109375 127.33984375 C229.11684833 151.12429652 237.25769097 178.18362096 242.75 205.25 C242.99991699 206.40894775 242.99991699 206.40894775 243.25488281 207.59130859 C255.55645991 265.82641425 240.23723777 332.92429591 208.453125 382.42578125 C193.97273105 404.6393175 177.34649724 425.49452047 156.47265625 442.08203125 C154.70701076 443.48796131 152.96296177 444.92162233 151.24609375 446.38671875 C127.31559681 466.73677493 97.91118977 481.70694649 67.75 490.25 C66.90405273 490.49057129 66.05810547 490.73114258 65.18652344 490.97900391 C43.02815278 497.19209744 21.73112829 500.48088741 -1.3125 500.5 C-2.05233124 500.50067474 -2.79216248 500.50134949 -3.55441284 500.50204468 C-17.93466735 500.48142575 -32.02614306 499.45190991 -46.25 497.25 C-47.29945801 497.08902832 -48.34891602 496.92805664 -49.43017578 496.76220703 C-86.91314578 490.74713508 -123.301061 474.4764931 -153.25 451.25 C-153.95890381 450.71987305 -154.66780762 450.18974609 -155.39819336 449.64355469 C-162.85826329 443.91718998 -169.40567133 437.36499498 -176.01000977 430.69580078 C-177.93907218 428.74841288 -179.87608608 426.80921602 -181.81445312 424.87109375 C-187.36203119 419.30734315 -192.87157944 413.75464345 -197.9621582 407.76318359 C-199.56890572 405.87529333 -201.28910058 404.10580512 -203 402.3125 C-243.84460876 356.2637519 -256.94227472 288.84651458 -254.25 229.25 C-250.81482507 176.47557993 -227.93307137 125.72730384 -193.25 86.25 C-192.48816406 85.37601562 -191.72632813 84.50203125 -190.94140625 83.6015625 C-179.20371022 70.33650138 -166.40891808 58.84329296 -152.25 48.25 C-151.69538086 47.83314941 -151.14076172 47.41629883 -150.56933594 46.98681641 C-106.37609801 13.96457521 -54.59779058 0.04141141 0 0 Z " fill="#FEFEFE" transform="translate(605.25,238.75)"/>
<path d="M0 0 C0.81181732 -0.00067474 1.62363464 -0.00134949 2.46005249 -0.00204468 C13.94450381 0.01305215 25.07424776 0.38940261 36.35205078 2.75390625 C39.03845484 3.30967626 41.73370486 3.79535098 44.43359375 4.28125 C86.66968371 12.15228747 123.52744995 31.55410718 156.75 58.25 C157.39291992 58.7661084 158.03583984 59.2822168 158.69824219 59.81396484 C172.88424103 71.3092539 184.81821496 84.66832273 195.75 99.25 C196.80960938 100.64992188 196.80960938 100.64992188 197.890625 102.078125 C202.79601413 108.68301902 207.32605882 115.5179966 211.66503906 122.50439453 C212.67062328 124.12228993 213.6901978 125.73146705 214.7109375 127.33984375 C229.11684833 151.12429652 237.25769097 178.18362096 242.75 205.25 C242.99991699 206.40894775 242.99991699 206.40894775 243.25488281 207.59130859 C255.55645991 265.82641425 240.23723777 332.92429591 208.453125 382.42578125 C193.97273105 404.6393175 177.34649724 425.49452047 156.47265625 442.08203125 C154.70701076 443.48796131 152.96296177 444.92162233 151.24609375 446.38671875 C127.31559681 466.73677493 97.91118977 481.70694649 67.75 490.25 C66.90405273 490.49057129 66.05810547 490.73114258 65.18652344 490.97900391 C43.02815278 497.19209744 21.73112829 500.48088741 -1.3125 500.5 C-2.05233124 500.50067474 -2.79216248 500.50134949 -3.55441284 500.50204468 C-17.93466735 500.48142575 -32.02614306 499.45190991 -46.25 497.25 C-47.29945801 497.08902832 -48.34891602 496.92805664 -49.43017578 496.76220703 C-86.91314578 490.74713508 -123.301061 474.4764931 -153.25 451.25 C-153.95890381 450.71987305 -154.66780762 450.18974609 -155.39819336 449.64355469 C-162.85826329 443.91718998 -169.40567133 437.36499498 -176.01000977 430.69580078 C-177.93907218 428.74841288 -179.87608608 426.80921602 -181.81445312 424.87109375 C-187.36203119 419.30734315 -192.87157944 413.75464345 -197.9621582 407.76318359 C-199.56890572 405.87529333 -201.28910058 404.10580512 -203 402.3125 C-243.84460876 356.2637519 -256.94227472 288.84651458 -254.25 229.25 C-250.81482507 176.47557993 -227.93307137 125.72730384 -193.25 86.25 C-192.48816406 85.37601562 -191.72632813 84.50203125 -190.94140625 83.6015625 C-179.20371022 70.33650138 -166.40891808 58.84329296 -152.25 48.25 C-151.69538086 47.83314941 -151.14076172 47.41629883 -150.56933594 46.98681641 C-106.37609801 13.96457521 -54.59779058 0.04141141 0 0 Z M-150.25 73.25 C-151.05800049 73.92482422 -151.05800049 73.92482422 -151.88232422 74.61328125 C-163.12310313 84.01522377 -173.1185365 93.74164814 -182.25 105.25 C-183.11204125 106.29919712 -183.97536164 107.34734435 -184.83984375 108.39453125 C-209.06355039 138.02468835 -224.30888161 173.74568972 -231.25 211.25 C-231.38132324 211.95060547 -231.51264648 212.65121094 -231.64794922 213.37304688 C-241.83928034 271.51937929 -224.70140886 335.10170739 -191.375 382.9375 C-176.88036848 403.23366472 -159.3069689 421.50064785 -138.99365234 436.00146484 C-137.54804257 437.03658783 -136.12444785 438.10237666 -134.70703125 439.17578125 C-108.49778555 458.61237231 -76.24931226 470.73542112 -44.25 476.25 C-43.38938965 476.40098145 -42.5287793 476.55196289 -41.64208984 476.70751953 C6.42023108 484.78617257 56.80388546 477.53996799 99.75 454.25 C100.4713916 453.86585938 101.1927832 453.48171875 101.93603516 453.0859375 C133.68136872 436.15873319 162.42237882 413.25593713 182.75 383.25 C183.6230613 381.99825365 184.49676089 380.74695226 185.37109375 379.49609375 C201.1236697 356.69349702 211.44894164 331.94654444 218.75 305.25 C218.96382324 304.4863916 219.17764648 303.7227832 219.39794922 302.93603516 C227.49405634 273.6116047 228.6026089 236.9141011 221.75 207.25 C221.54600586 206.31913574 221.34201172 205.38827148 221.13183594 204.42919922 C212.24046962 164.31451234 193.82455745 126.55751206 165.7109375 96.36328125 C163.90390788 94.41586487 162.20229001 92.41359609 160.5 90.375 C126.27440755 51.2600372 70.16750813 25.50073457 18.85546875 21.6953125 C10.32060683 21.16679562 1.80003859 21.00670173 -6.75 21 C-7.5344751 20.99932526 -8.3189502 20.99865051 -9.12719727 20.99795532 C-60.69374179 21.06794036 -110.80055725 40.0040574 -150.25 73.25 Z " fill="#3C474C" transform="translate(605.25,238.75)"/>
<path d="M0 0 C2.60831991 1.29684143 4.80389854 2.56579426 7.1875 4.1875 C7.87183105 4.63383789 8.55616211 5.08017578 9.26123047 5.54003906 C10.74252322 6.50810452 12.21927734 7.48314319 13.69189453 8.46435547 C16.82628699 10.54975092 19.98650471 12.59437935 23.14575195 14.6418457 C25.67560814 16.28282677 28.20105018 17.9304684 30.7265625 19.578125 C36.1260244 23.09170835 41.56015868 26.54937581 47 30 C58.22648974 37.12488186 69.37319614 44.36863748 80.50732422 51.63671875 C89.42883899 57.45878071 98.36242703 63.25711668 107.375 68.9375 C108.14142822 69.42065674 108.90785645 69.90381348 109.69750977 70.40161133 C113.06203087 72.52138159 116.42728502 74.63997627 119.79394531 76.75634766 C148.57994902 94.86992354 148.57994902 94.86992354 152 100 C152.78852324 106.87141683 152.78852324 106.87141683 149.92578125 110.96875 C146.96392183 114.29828852 143.56856182 116.44914588 139.75 118.6875 C138.30389687 119.56380076 136.85860896 120.441448 135.4140625 121.3203125 C134.67704102 121.76536133 133.94001953 122.21041016 133.18066406 122.66894531 C129.78897501 124.73919707 126.45577522 126.8960331 123.125 129.0625 C122.44405273 129.50424561 121.76310547 129.94599121 121.06152344 130.40112305 C113.79173236 135.12355456 106.54076072 139.87490631 99.28646851 144.62109375 C82.62968762 155.51862632 65.89577716 166.29093943 49.12060547 177.00537109 C46.18409321 178.88233128 43.25000282 180.76301857 40.31640625 182.64453125 C30.70722484 188.79741878 21.0478074 194.86085697 11.3125 200.8125 C9.83209229 201.72056396 9.83209229 201.72056396 8.32177734 202.64697266 C7.40734863 203.20304199 6.49291992 203.75911133 5.55078125 204.33203125 C4.33902222 205.07030151 4.33902222 205.07030151 3.1027832 205.82348633 C-0.98766436 208.11210433 -4.3741038 208.71781148 -9 208 C-15.97247323 200.54133878 -14.71901853 190.95447902 -14.67871094 181.37841797 C-14.68876822 179.47565546 -14.70091795 177.57290303 -14.71499634 175.67016602 C-14.74626724 170.51737641 -14.74573637 165.36505462 -14.73749065 160.21219397 C-14.73332569 155.90773384 -14.74431019 151.60336512 -14.75513482 147.29892075 C-14.78025411 137.14598335 -14.77916415 126.99327879 -14.76171875 116.84033203 C-14.74417977 106.3676591 -14.77062446 95.89574645 -14.81868529 85.42318618 C-14.85844112 76.42592558 -14.87110109 67.42890527 -14.86197114 58.43156159 C-14.8567859 53.06013443 -14.86186032 47.68921792 -14.89293671 42.31786728 C-14.92095289 37.26957536 -14.91512041 32.22243697 -14.88322067 27.17417908 C-14.87716223 25.32225127 -14.88303424 23.47024011 -14.90172958 21.61839676 C-15.0319299 7.68371213 -15.0319299 7.68371213 -12.5059433 3.56227493 C-8.61484097 0.03524194 -5.27399262 -0.95624115 0 0 Z " fill="#3A454C" transform="translate(553,385)"/>
<path d="M0 0 C1.05219727 0.00572021 2.10439453 0.01144043 3.18847656 0.01733398 C12.04670587 0.21915157 19.23391621 1.68403434 27.3125 5.5 C28.364375 5.99628906 29.41625 6.49257813 30.5 7.00390625 C41.85508258 13.01456859 50.55263274 22.03618652 56.3125 33.5 C56.70050781 34.26183594 57.08851563 35.02367187 57.48828125 35.80859375 C64.93454962 51.43221865 63.95200211 69.43494947 58.3125 85.5 C51.392903 101.94551435 39.57423393 112.93684149 23.23828125 119.7265625 C22.60277344 119.98179687 21.96726562 120.23703125 21.3125 120.5 C19.9821875 121.0878125 19.9821875 121.0878125 18.625 121.6875 C5.7037035 126.22741499 -11.22303169 124.44400698 -23.6875 119.5 C-41.69489994 110.50645076 -52.88243746 97.20250408 -59.6875 78.5 C-62.75587798 65.38990187 -62.07418555 49.84300133 -56.6875 37.5 C-56.36007812 36.64921875 -56.03265625 35.7984375 -55.6953125 34.921875 C-49.6411797 20.86921639 -35.68996894 9.10867069 -21.6875 3.5 C-14.40885785 0.80686074 -7.74044158 -0.04917135 0 0 Z " fill="#535C61" transform="translate(781.6875,839.5)"/>
<path d="M0 0 C0.9245549 -0.00570007 1.8491098 -0.01140015 2.80168152 -0.01727295 C4.76971283 -0.02674712 6.73776018 -0.03326646 8.70581055 -0.03710938 C11.67982062 -0.04671147 14.65310857 -0.0776672 17.62695312 -0.109375 C27.44281832 -0.16457902 36.53633568 -0.06801624 45.91796875 3.203125 C47.05492187 3.56792969 48.191875 3.93273437 49.36328125 4.30859375 C64.61357272 10.46651028 75.60503485 21.97031721 82.4765625 36.765625 C88.76700495 51.76722216 88.39481193 66.99922083 82.91796875 82.203125 C76.30852712 97.75072345 65.82563549 108.26281719 50.25610352 114.66845703 C31.30460663 122.00967807 10.95675832 123.05707265 -9.08203125 120.203125 C-10.69633007 118.58882618 -10.20804507 116.84248601 -10.20901489 114.60986328 C-10.21183472 113.6170636 -10.21465454 112.62426392 -10.21755981 111.60137939 C-10.21553558 110.50315857 -10.21351135 109.40493774 -10.21142578 108.2734375 C-10.2131781 107.12397644 -10.21493042 105.97451538 -10.21673584 104.79022217 C-10.22115715 100.969508 -10.21821538 97.14883968 -10.21484375 93.328125 C-10.21551671 90.68636059 -10.21648667 88.04459623 -10.21774292 85.40283203 C-10.21956446 79.85774229 -10.21715872 74.31266585 -10.21240234 68.76757812 C-10.20695975 62.34817756 -10.20872242 55.92880875 -10.21422875 49.50940895 C-10.21930551 43.34511517 -10.21877836 37.18083552 -10.21584702 31.01654053 C-10.21517747 28.3881632 -10.21600713 25.75978508 -10.21832657 23.13140869 C-10.22085144 19.46518777 -10.21701482 15.79902878 -10.21142578 12.1328125 C-10.21345001 11.03459167 -10.21547424 9.93637085 -10.21755981 8.80487061 C-10.21473999 7.81207092 -10.21192017 6.81927124 -10.20901489 5.79638672 C-10.20863787 4.92843475 -10.20826084 4.06048279 -10.20787239 3.16622925 C-9.89021336 -1.78920734 -3.77924991 0.01789034 0 0 Z " fill="#555D62" transform="translate(528.08203125,840.796875)"/>
<path d="M0 0 C5.00960522 1.00192104 8.19561035 2.72832642 12.375 5.4375 C13.08342041 5.88851074 13.79184082 6.33952148 14.52172852 6.80419922 C19.63611469 10.07563003 24.68857835 13.43774783 29.72460938 16.828125 C38.0234584 22.39473758 46.47568751 27.72535262 54.8984375 33.1015625 C61.95380133 37.60521824 68.98199096 42.15001196 76.00390625 46.70556641 C78.78813706 48.51109378 81.57431616 50.31360313 84.3605957 52.1159668 C85.7733672 53.02992339 87.18596827 53.9441435 88.59838867 54.85864258 C92.29835938 57.2540565 96.00088318 59.64540288 99.70703125 62.03125 C100.47789062 62.52818359 101.24875 63.02511719 102.04296875 63.53710938 C103.51745455 64.48753094 104.99267445 65.43681493 106.46875 66.38476562 C113.86482028 71.15573166 113.86482028 71.15573166 116 73 C116 73.66 116 74.32 116 75 C114.24346444 76.28833556 112.4123556 77.47466963 110.5625 78.625 C109.26543396 79.4411027 107.96857559 80.25753552 106.671875 81.07421875 C105.93517578 81.53489746 105.19847656 81.99557617 104.43945312 82.47021484 C99.7140714 85.43350967 95.01339113 88.43555829 90.3125 91.4375 C88.72236084 92.45215332 88.72236084 92.45215332 87.10009766 93.48730469 C78.9804306 98.68706777 70.94645938 104.00664832 62.9375 109.375 C54.71649195 114.88431014 46.462842 120.31115007 38.03515625 125.5 C31.93679422 129.25765568 25.91699722 133.14119722 19.88549805 137.00488281 C15.43373736 139.84818897 10.96624033 142.66405418 6.4609375 145.421875 C5.24736572 146.1658252 5.24736572 146.1658252 4.00927734 146.92480469 C2 148 2 148 0 148 C0 99.16 0 50.32 0 0 Z " fill="#B1CAFA" transform="translate(559,415)"/>
<path d="M0 0 C27.06 0 54.12 0 82 0 C82 7.92 82 15.84 82 24 C62.86 24 43.72 24 24 24 C24 31.92 24 39.84 24 48 C36.87 48 49.74 48 63 48 C63 55.92 63 63.84 63 72 C50.13 72 37.26 72 24 72 C24 79.92 24 87.84 24 96 C43.14 96 62.28 96 82 96 C82 103.92 82 111.84 82 120 C54.94 120 27.88 120 0 120 C-0.63373081 112.39523027 -1.14664797 105.06558839 -1.12939453 97.47729492 C-1.13114685 96.50167603 -1.13289917 95.52605713 -1.13470459 94.52087402 C-1.13905631 91.34072009 -1.13621008 88.16062311 -1.1328125 84.98046875 C-1.13348719 82.74994394 -1.13445859 80.51941921 -1.13571167 78.28889465 C-1.13717935 73.63505344 -1.13506308 68.98123153 -1.13037109 64.32739258 C-1.12465772 58.37140217 -1.12796887 52.41545667 -1.13394356 46.45946789 C-1.13756014 41.8620622 -1.13640581 37.26466713 -1.13381577 32.66726112 C-1.1331504 30.47087918 -1.13396124 28.27449627 -1.13629532 26.07811546 C-1.13884169 23.01062847 -1.13495399 19.94321402 -1.12939453 16.87573242 C-1.13141876 15.9753273 -1.13344299 15.07492218 -1.13552856 14.14723206 C-1.13270874 13.30512177 -1.12988892 12.46301147 -1.12698364 11.59538269 C-1.12660662 10.87261233 -1.12622959 10.14984198 -1.12584114 9.40516949 C-0.96086613 6.2520444 -0.44652916 3.12570413 0 0 Z " fill="#555E62" transform="translate(631,841)"/>
<path d="M0 0 C3.74993479 -0.05811773 7.49975352 -0.09363593 11.25 -0.125 C12.84521484 -0.15013672 12.84521484 -0.15013672 14.47265625 -0.17578125 C16.00986328 -0.18544922 16.00986328 -0.18544922 17.578125 -0.1953125 C18.52075195 -0.20578613 19.46337891 -0.21625977 20.43457031 -0.22705078 C23.1332161 0.01179016 24.72907391 0.54800697 27 2 C30.45925119 8.11134377 31.80108349 15.74837334 33.703125 22.4921875 C36.9627087 33.97248108 40.40497039 45.39438515 43.875 56.8125 C44.47411128 58.78836509 45.0730702 60.76427638 45.671875 62.74023438 C47.11283886 67.49402062 48.5558235 72.24718881 50 77 C52.58391548 74.41608452 52.95341807 72.27663535 53.953125 68.76171875 C54.13379013 68.1333461 54.31445526 67.50497345 54.50059509 66.8575592 C55.08985435 64.80256779 55.66988083 62.74508836 56.25 60.6875 C56.65603087 59.26642254 57.06269137 57.84552484 57.4699707 56.42480469 C58.65470096 52.28547113 59.82874918 48.14316483 61 44 C63.99157714 33.42911845 66.98312798 22.86490113 70.25 12.375 C70.49645264 11.57416992 70.74290527 10.77333984 70.99682617 9.94824219 C72.04945621 6.61388282 73.04816492 3.92775261 75 1 C77.61376953 0.65942383 77.61376953 0.65942383 80.8828125 0.70703125 C82.04941406 0.71669922 83.21601563 0.72636719 84.41796875 0.73632812 C85.64128906 0.76146484 86.86460937 0.78660156 88.125 0.8125 C89.97158203 0.83280273 89.97158203 0.83280273 91.85546875 0.85351562 C94.90407843 0.88896457 97.951825 0.93837921 101 1 C100.40659926 6.04858355 99.30561786 10.68351723 97.69921875 15.51171875 C97.46709183 16.22463577 97.2349649 16.9375528 96.99580383 17.67207336 C96.23203818 20.01244738 95.45988651 22.34995837 94.6875 24.6875 C94.14476921 26.34426578 93.60245873 28.0011693 93.06054688 29.65820312 C88.93361845 42.25521492 84.73683331 54.82921927 80.52685547 67.39868164 C76.17541563 80.40324327 71.94308168 93.44547235 67.74414062 106.5 C67.49995895 107.25727386 67.25577728 108.01454773 67.00419617 108.79476929 C66.5469161 110.21312213 66.09096067 111.63190295 65.6365509 113.05117798 C64.11250898 117.77498203 64.11250898 117.77498203 63 120 C58.68362508 121.43879164 54.52157417 121.22452634 50 121.25 C49.08476562 121.270625 48.16953125 121.29125 47.2265625 121.3125 C46.34742188 121.31765625 45.46828125 121.3228125 44.5625 121.328125 C43.75941406 121.3374707 42.95632813 121.34681641 42.12890625 121.35644531 C39.41880025 120.90268903 38.75119728 120.08429813 37 118 C36.11929321 116.01020813 36.11929321 116.01020813 35.39697266 113.7043457 C35.11834381 112.83115692 34.83971497 111.95796814 34.55264282 111.05831909 C34.25941132 110.1070816 33.96617981 109.15584412 33.6640625 108.17578125 C33.34835297 107.17845978 33.03264343 106.18113831 32.70736694 105.15359497 C31.67156259 101.87579668 30.6484426 98.59417678 29.625 95.3125 C28.90861923 93.03945832 28.19116177 90.76675571 27.47265625 88.49438477 C26.37715751 85.02946271 25.28226868 81.56436369 24.19073486 78.09819031 C21.12131825 68.35388147 17.98256652 58.63330923 14.81106567 48.92181396 C13.49191297 44.88121701 12.17799303 40.8389186 10.86328125 36.796875 C9.46649569 32.50417719 8.06915764 28.2116625 6.66943359 23.91992188 C5.50367792 20.34409754 4.34509467 16.76597515 3.1875 13.1875 C2.85556641 12.17292725 2.52363281 11.15835449 2.18164062 10.11303711 C1.88837891 9.20303955 1.59511719 8.29304199 1.29296875 7.35546875 C1.0405542 6.57840576 0.78813965 5.80134277 0.52807617 5.00073242 C0 3 0 3 0 0 Z " fill="#545C61" transform="translate(359,840)"/>
<path d="M0 0 C3.84847555 3.55087814 6.62480273 7.52618637 9.22265625 12.05078125 C9.58359375 12.66308594 9.94453125 13.27539062 10.31640625 13.90625 C14.02575521 21.68557907 13.23537558 33.19477749 11.22265625 41.36328125 C7.97707202 50.39910965 1.50332903 58.24613716 -6.77734375 63.05078125 C-7.46828125 63.46199219 -8.15921875 63.87320313 -8.87109375 64.296875 C-17.52232177 68.57804777 -28.58838971 68.43822938 -37.87890625 66.35546875 C-40.35752497 65.44229343 -42.51085549 64.40309116 -44.77734375 63.05078125 C-45.84855469 62.41462891 -45.84855469 62.41462891 -46.94140625 61.765625 C-55.37579606 56.09531424 -60.69400734 46.90566471 -62.77734375 37.05078125 C-63.9918193 25.91200764 -63.66903689 15.70587497 -56.859375 6.44140625 C-41.9333037 -11.41704366 -18.8758819 -14.33339325 0 0 Z " fill="#FDFDFD" transform="translate(807.77734375,871.94921875)"/>
<path d="M0 0 C7.92 0 15.84 0 24 0 C24 39.6 24 79.2 24 120 C16.08 120 8.16 120 0 120 C0 80.4 0 40.8 0 0 Z " fill="#555D62" transform="translate(472,841)"/>
<path d="M0 0 C26.73417722 0 26.73417722 0 37.90625 10.8515625 C45.59669215 19.03080394 47.59779609 26.29972653 47.47290039 37.33105469 C47.2350428 43.52179798 46.21093396 48.61843467 43 54 C42.57589844 54.71414063 42.15179687 55.42828125 41.71484375 56.1640625 C36.46336682 63.97545159 28.82986599 68.24971387 20 71 C14 72 14 72 0 72 C0 48.24 0 24.48 0 0 Z " fill="#FDFEFE" transform="translate(543,865)"/>
<path d="M0 0 C1.6396875 0.2475 1.6396875 0.2475 3.3125 0.5 C6.87525873 1.06718184 6.87525873 1.06718184 10 1 C11 2 11 2 11.0625 5.0625 C11.041875 6.031875 11.02125 7.00125 11 8 C9.16399255 6.85845641 7.33125195 5.71165684 5.5 4.5625 C4.4790625 3.92441406 3.458125 3.28632813 2.40625 2.62890625 C1.6121875 2.09136719 0.818125 1.55382812 0 1 C0 0.67 0 0.34 0 0 Z " fill="#3E4C59" transform="translate(580,426)"/>
<path d="M0 0 C11.52164009 7.29840547 11.52164009 7.29840547 17 11 C15.375 11.75 15.375 11.75 13 12 C9.75 10.1875 9.75 10.1875 7 8 C7 7.34 7 6.68 7 6 C5.68 5.67 4.36 5.34 3 5 C3 4.34 3 3.68 3 3 C2.01 2.67 1.02 2.34 0 2 C0 1.34 0 0.68 0 0 Z " fill="#B4C9EC" transform="translate(576,424)"/>
<path d="M0 0 C0.99 0.33 1.98 0.66 3 1 C3 1.66 3 2.32 3 3 C1.03125 4.5078125 1.03125 4.5078125 -1.5 6.125 C-2.3353125 6.66382813 -3.170625 7.20265625 -4.03125 7.7578125 C-4.6809375 8.16773438 -5.330625 8.57765625 -6 9 C-6 8.01 -6 7.02 -6 6 C-4.34467377 4.98133771 -2.67739862 3.98189187 -1 3 C-0.67 2.01 -0.34 1.02 0 0 Z " fill="#AEC1DE" transform="translate(672,487)"/>
<path d="M0 0 C3.3125 -0.25 3.3125 -0.25 7 0 C8.9375 1.875 8.9375 1.875 10 4 C10 4.66 10 5.32 10 6 C6.00499382 4.6302836 3.19990508 2.74277578 0 0 Z " fill="#3C4B59" transform="translate(604,442)"/>
<path d="M0 0 C0 3.38023517 -0.87455622 5.83468937 -2 9 C-2.99 9 -3.98 9 -5 9 C-5.33 9.66 -5.66 10.32 -6 11 C-6 7.39426104 -5.18292538 6.58663434 -3 3.8125 C-2.443125 3.09707031 -1.88625 2.38164062 -1.3125 1.64453125 C-0.879375 1.10183594 -0.44625 0.55914062 0 0 Z " fill="#4C5357" transform="translate(405,333)"/>
<path d="M0 0 C-0.66 1.65 -1.32 3.3 -2 5 C-5 3 -5 3 -7 0 C-3.86650268 -1.04449911 -3.01031744 -0.93423645 0 0 Z " fill="#5C6367" transform="translate(770,842)"/>
<path d="M0 0 C0.33 0.66 0.66 1.32 1 2 C1.66 2.33 2.32 2.66 3 3 C1.02 4.32 -0.96 5.64 -3 7 C-3.33 6.01 -3.66 5.02 -4 4 C-3.34 4 -2.68 4 -2 4 C-2 3.01 -2 2.02 -2 1 C-1.34 0.67 -0.68 0.34 0 0 Z " fill="#434B50" transform="translate(557,585)"/>
<path d="M0 0 C0 0.99 0 1.98 0 3 C-3.5460927 5.80388725 -6.4926374 7.46972205 -11 8 C-7.45960866 5.0843836 -3.8373228 2.49872182 0 0 Z " fill="#3C4C5A" transform="translate(604,535)"/>
<path d="M0 0 C1.65 0 3.3 0 5 0 C5.33 0.66 5.66 1.32 6 2 C3.69 3.32 1.38 4.64 -1 6 C-1.33 5.34 -1.66 4.68 -2 4 C-1.0625 1.875 -1.0625 1.875 0 0 Z " fill="#4B5257" transform="translate(468,297)"/>
<path d="M0 0 C1.9453125 0.77734375 1.9453125 0.77734375 4.125 1.9375 C5.21167969 2.50791016 5.21167969 2.50791016 6.3203125 3.08984375 C6.87460937 3.39019531 7.42890625 3.69054687 8 4 C7.67 4.66 7.34 5.32 7 6 C6.34 6 5.68 6 5 6 C5 5.34 5 4.68 5 4 C1.95086772 2.98888907 1.95086772 2.98888907 -1 4 C-1.33 3.01 -1.66 2.02 -2 1 C-1.34 0.67 -0.68 0.34 0 0 Z " fill="#B3C7EE" transform="translate(566,418)"/>
<path d="M0 0 C0.66 0 1.32 0 2 0 C0.60667426 3.36720387 -0.9789286 4.9859524 -4 7 C-4 6.01 -4 5.02 -4 4 C-2.68 3.34 -1.36 2.68 0 2 C0 1.34 0 0.68 0 0 Z " fill="#4E5558" transform="translate(775,665)"/>
<path d="M0 0 C2.475 0.99 2.475 0.99 5 2 C3.625 3.5 3.625 3.5 2 5 C1.34 5 0.68 5 0 5 C-0.5625 3.0625 -0.5625 3.0625 -1 1 C-0.67 0.67 -0.34 0.34 0 0 Z " fill="#444D52" transform="translate(564,393)"/>
</svg>
